<?xml version="1.0" encoding="UTF-8"?>
<svg id="Calque_1" data-name="Calque 1" xmlns="http://www.w3.org/2000/svg" viewBox="0 0 622.6 115.38">
  <defs>
    <style>
      .cls-1 {
        fill: #01abb4;
      }

      .cls-2 {
        fill: #022b52;
      }

      .cls-3 {
        fill: #022c53;
      }

      .cls-4 {
        fill: #022a51;
      }

      .cls-5 {
        fill: #012b52;
      }
    </style>
  </defs>
  <path class="cls-4" d="M57.03,50.68l-.26,37.98h-14.86l-.2-39.77c-.03-6.57-5.46-10.75-11.63-11.03-7.99-.37-15.02,5.09-15.06,13.42l-.19,37.38-14.83.05V25.7l14.84.09c.19,2.5-.41,4.46.45,7.3,5.58-7.28,14.47-9.88,23.32-8.27,6.58,1.2,12.04,4.66,15.01,11.13,7.22-11.86,23.06-14.68,34.9-8.19,6.6,4.19,10.44,11.28,10.48,19.34l.19,41.58-15.28-.04-.15-39.06c-.03-7.21-6.06-11.83-12.97-11.67s-13.69,4.95-13.74,12.77h-.02Z"/>
  <path class="cls-2" d="M360.94,88.69l-.19-38.1c-.04-7.93-6.41-13.01-14.06-12.64s-14.71,5.9-14.76,14.21l-.22,36.55-14.96-.04-.03-88.55,15.01-.12.15,33.49c6.49-7.67,15.88-10.26,25.25-8.62,10.71,1.87,17.61,9.76,18.73,20.83l.23,42.84-15.16.14h0Z"/>
  <path class="cls-3" d="M262.12,68.94c3.7,5.63,9.61,7.87,15.57,7.78,6.12-.09,11.74-2.96,15.28-8.61l12.55,7.52c-7.07,10.88-19.17,15.43-31.85,14.38-15.71-1.31-27.91-12.36-29.72-28.19-1.29-11.32,2.25-22.66,11.2-29.99,8.01-6.56,18.39-8.5,28.57-6.96,8.91,1.47,16.6,6,21.59,13.95l-12.15,7.64c-3.61-5.5-8.94-8.32-14.82-8.56-6.11-.25-11.97,1.94-15.72,7.16-4.97,6.9-5.37,16.5-.51,23.89h.01Z"/>
  <path class="cls-5" d="M234.14,74.46l2.52,12.51c-6.94,3.09-14.78,3.9-22.18,1.47-6.97-2.29-11.47-8.8-11.52-16.15l-.21-33.34-11.31-.14-.1-13.09,11.4-.09.05-13.48,14.83-4v17.48l17.06.06.04,13.14-17.15.11.14,30.09c.02,3.88,2.31,6.86,6.3,7.3,3.27.42,6.04-.15,10.13-1.88h0Z"/>
  <path class="cls-2" d="M531.94,26.21l-.19,7.34c-11.55-12.31-31.96-11.04-42.67.58-9.64,10.46-11.08,26.25-4.47,38.64,5.42,10.17,15.96,15.61,27.25,15.5,7.92-.08,14.37-3.13,19.76-8.98,1.88,12.3-4.2,21.99-15.72,22.89-8.74.69-16.45-2.54-21.97-9.35l-10.43,10.08c10.6,11.84,26.84,14.7,41.11,10.89,12.62-3.37,21.61-14.19,21.67-27.59l.3-60.09-14.63.1h-.01ZM513.77,75.13c-10.27,0-18.6-8.33-18.6-18.6s8.33-18.6,18.6-18.6,18.6,8.33,18.6,18.6-8.33,18.6-18.6,18.6Z"/>
  <path class="cls-1" d="M458.53,72.2c5.16-6.45,8.02-13.63,9.84-21.7l-12.36-4.37c-1.37,5.61-3.09,10.75-6.43,15.94l-16.3-18.47c4.74-2.39,8.74-4.63,12.24-8.09,8.59-8.48,8.12-22.14-2.07-29.36-8.74-6.19-21.21-6.23-30.16-.11-11.28,7.72-10.4,23.57-.17,34.67-12.86,6.19-20.44,15.96-17.81,29.44,1.39,7.13,6.43,14.11,14.21,17.27,13.21,5.36,28.34,3.07,39.37-5.95l6.38,7.21,17.68-.26-14.42-16.22h0ZM420.76,17.59c1.5-2.34,4.9-3.98,8.31-3.85,3.47.13,6.53,2.31,7.83,4.68,1.8,3.27,1.52,7.15-.73,9.8-2.57,3.04-5.78,4.62-9.8,6.8-5.77-5.26-9.39-11.54-5.61-17.43h0ZM410.43,69.44c-3.31-7.73,1.54-15.95,10.37-19.65l19.8,21.95c-9.91,8.37-25.92,7.64-30.17-2.3h0Z"/>
  <path class="cls-2" d="M179.46,25.71h-15.26l-.28,7.95c-4.38-5.31-10.09-8.15-16.8-9.01-15.55-1.99-29.73,6.61-34.33,21.71-2.18,7.14-2.08,14.72.04,21.86,3.92,13.2,15.48,21.61,29.15,21.87,8.63.16,16.23-2.62,21.97-9.28l.58,7.91,15.02-.19-.08-62.82h-.01ZM145.16,76.55c-10.7-.13-19.27-8.91-19.14-19.61.13-10.7,8.91-19.27,19.61-19.14,10.7.13,19.27,8.91,19.14,19.61-.13,10.7-8.91,19.27-19.61,19.14h0Z"/>
  <path class="cls-2" d="M589.42,24.66c-18.32,0-33.18,14.85-33.18,33.18s14.85,33.18,33.18,33.18,33.18-14.85,33.18-33.18-14.85-33.18-33.18-33.18ZM589.41,76.86c-10.55,0-19.11-8.55-19.11-19.11s8.55-19.11,19.11-19.11,19.11,8.55,19.11,19.11-8.55,19.11-19.11,19.11h0Z"/>
</svg>