<?xml version="1.0" encoding="UTF-8"?>
<svg id="Calque_1" xmlns="http://www.w3.org/2000/svg" version="1.1" viewBox="0 0 489.2 526.3">
  <!-- Generator: Adobe Illustrator 30.3.0, SVG Export Plug-In . SVG Version: 2.1.3 Build 182)  -->
  <defs>
    <style>
      .st0 {
        fill: #ff9a76;
      }

      .st1 {
        fill: #db2777;
      }
    </style>
  </defs>
  <path class="st1" d="M210.1,375.9c-12.5-18.5-9.8-36.1,4-52.9l29.8-28.4,2.2.6,23.2-21.9,143.1-131.7c10.5-9.7,25.6-12.8,39.4-10,19.3,3.9,35.3,21.1,35.3,41.8v312.9c0,19.9-15.8,35.6-34.2,39.2-24.9,4.8-50.2-13-50.2-39.2l-.5-222.6-123.9,115.4c-19,17.6-46.8,19.2-64.9-.6-1.5,0-2.3-1.8-3.1-2.5h0s0,0,0,0Z"/>
  <path class="st0" d="M246.1,295.1l-30.6,29.2c-13.7,13-14.2,34.2-4.9,50.1,1.2.4.7,1.7-.4,1.4l-125.1-112.1-.3,221.6c0,26.4-24.4,44.9-50,40.2C16.6,522.3.1,507,.1,487V173.7c-.1-17.3,12.1-32.2,25.3-38.5,16.2-7.7,35.4-5.9,48.6,5.9l172.1,154.1h0Z"/>
  <circle class="st0" cx="55.7" cy="55.6" r="55.6"/>
  <circle class="st1" cx="433.9" cy="55.3" r="55.3"/>
</svg>