<?xml version="1.0" encoding="UTF-8"?>
<svg id="Calque_1" data-name="Calque 1" xmlns="http://www.w3.org/2000/svg" viewBox="0 0 489.16 526.32">
  <defs>
    <style>
      .cls-1 {
        fill: #01adb5;
      }

      .cls-2 {
        fill: #01abb4;
      }

      .cls-3 {
        fill: #012c53;
      }

      .cls-4 {
        fill: #012b52;
      }
    </style>
  </defs>
  <path class="cls-2" d="M210.15,375.87c-12.5-18.45-9.75-36.09,3.96-52.94l29.79-28.4,2.18.62,23.25-21.93,143.1-131.67c10.54-9.7,25.6-12.78,39.36-10.02,19.26,3.86,35.3,21.1,35.3,41.78v312.9c-.01,19.89-15.76,35.61-34.2,39.16-24.88,4.78-50.17-12.98-50.24-39.2l-.55-222.58-123.91,115.35c-18.97,17.65-46.78,19.21-64.92-.62-1.46-.08-2.32-1.79-3.1-2.49v.03Z"/>
  <path class="cls-3" d="M246.08,295.15l-30.6,29.18c-13.66,13.02-14.16,34.2-4.9,50.15,1.22.37.7,1.66-.41,1.39l-125.11-112.12-.29,221.63c-.03,26.39-24.43,44.86-49.97,40.23C16.6,522.31.1,506.99.1,487l-.1-313.31c0-17.34,12.24-32.23,25.43-38.52,16.17-7.71,35.36-5.94,48.59,5.94l172.05,154.05h0Z"/>
  <g>
    <circle class="cls-4" cx="55.72" cy="55.57" r="55.57"/>
    <circle class="cls-1" cx="433.9" cy="55.34" r="55.26"/>
  </g>
</svg>